# xmcd
#
# Track frame offsets:
#      182
#      27277
#      53562
#      133972
#      162427
#      196010
#      225437
# 
# Disc length: 3360 seconds
#
# Revision: 4
# Processed by: cddbd v1.4PL0 Copyright (c) Steve Scherf et al.
#
# Submitted via: FreeRIP 1.21
#
DISCID=520d1e07
DTITLE=The Doors - Light My Fire
DYEAR=1900
DGENRE=rock
TTITLE0=Soul Kitchen
TTITLE1=Gloria
TTITLE2=Light My Fire - Fever
TTITLE3=Little Red Rooster
TTITLE4=Who Do You Love?
TTITLE5=Rock Me Baby
TTITLE6=Moonlight Drive
EXTD=
EXTT0=
EXTT1=
EXTT2=
EXTT3=
EXTT4=
EXTT5=
EXTT6=
PLAYORDER=
